<svg width="17" height="19" viewBox="0 0 17 19" fill="none" xmlns="http://www.w3.org/2000/svg">
<path d="M12.1562 16.8086C12.0859 17.6172 12.7539 18.25 13.5625 18.25H15.5312C16.3047 18.25 16.9375 17.6523 16.9375 16.9141V1.62109C16.9375 0.882812 16.3047 0.25 15.5312 0.25C13.2812 0.25 10.1875 3.13281 10.1523 6.4375C10.1523 8.30078 11.1719 9.84766 12.6484 11.0078L12.1562 16.8086ZM11.3125 6.4375C11.3125 3.69531 13.9492 1.375 15.5312 1.375C15.6719 1.375 15.8125 1.48047 15.8125 1.62109V16.9141C15.8125 17.0195 15.6719 17.125 15.5312 17.125H13.5625C13.3867 17.125 13.2461 17.0195 13.2812 16.9141L13.8086 10.4805C12.4375 9.46094 11.3125 8.23047 11.3125 6.4375ZM8.5 1.44531C8.39453 0.777344 7.76172 0.25 6.88281 0.25C6.46094 0.25 6.03906 0.390625 5.72266 0.671875C5.40625 0.425781 5.01953 0.25 4.5625 0.25C4.07031 0.25 3.68359 0.425781 3.36719 0.671875C3.05078 0.390625 2.62891 0.25 2.20703 0.25C1.32812 0.25 0.695312 0.777344 0.589844 1.44531C0.519531 1.79688 0.0625 4.43359 0.0625 5.52344C0.0625 7.31641 0.976562 8.75781 2.55859 9.42578L2.13672 16.8438C2.10156 17.6172 2.69922 18.25 3.50781 18.25H5.61719C6.39062 18.25 6.98828 17.6172 6.95312 16.8438L6.56641 9.42578C8.11328 8.75781 9.0625 7.31641 9.0625 5.52344C9.0625 4.43359 8.57031 1.79688 8.5 1.44531ZM5.40625 8.6875L5.82812 16.9141C5.82812 17.0195 5.72266 17.125 5.61719 17.125H3.50781C3.36719 17.125 3.26172 17.0195 3.26172 16.9141L3.68359 8.6875C2.20703 8.40625 1.1875 7.17578 1.1875 5.52344C1.1875 4.50391 1.67969 1.65625 1.67969 1.65625C1.75 1.30469 2.69922 1.30469 2.73438 1.65625V5.94531C2.76953 6.36719 3.71875 6.36719 3.75391 5.98047L4.03516 1.65625C4.07031 1.30469 5.01953 1.30469 5.05469 1.65625L5.33594 5.98047C5.37109 6.36719 6.32031 6.36719 6.35547 5.94531V1.65625C6.39062 1.30469 7.33984 1.30469 7.41016 1.65625C7.41016 1.65625 7.90234 4.50391 7.90234 5.52344C7.9375 7.17578 6.88281 8.40625 5.40625 8.6875Z" fill="#F17228"/>
</svg>
