<svg width="21" height="19" viewBox="0 0 21 19" fill="none" xmlns="http://www.w3.org/2000/svg">
<path d="M20.0625 5.875C19.9922 5.875 19.9219 5.91016 19.8516 5.94531L13.875 8.125L13.4883 8.01953C14.332 6.78906 15 5.52344 15 4.57422C15 2.18359 12.9609 0.25 10.5 0.25C8.00391 0.25 6 2.21875 6 4.57422C6 4.99609 6.14062 5.48828 6.35156 6.01562L1.07812 7.84375C0.65625 8.01953 0.375 8.44141 0.375 8.89844V17.6875C0.375 18.0391 0.621094 18.25 0.9375 18.25C1.00781 18.25 1.07812 18.25 1.14844 18.2148L7.125 16L13.1719 18.1445C13.6289 18.2852 14.1211 18.3203 14.5781 18.1445L19.8867 16.2812C20.3438 16.1406 20.625 15.7188 20.625 15.2617V6.4375C20.625 6.12109 20.3438 5.875 20.0625 5.875ZM6.5625 15.0156L1.46484 16.8789L1.42969 8.93359L6.5625 7.14062V15.0156ZM10.5 1.375C12.3281 1.375 13.875 2.81641 13.875 4.57422C13.875 5.52344 12.5039 7.70312 10.5 10.0938C8.46094 7.70312 7.125 5.52344 7.125 4.57422C7.125 2.81641 8.63672 1.375 10.5 1.375ZM13.3125 17.0195L7.6875 15.0156V8.30078C8.53125 9.56641 9.51562 10.6914 10.043 11.3242C10.1484 11.4648 10.3242 11.5 10.5 11.5C10.6406 11.5 10.8164 11.4648 10.9219 11.3242C11.3789 10.7969 12.1172 9.95312 12.8203 8.96875L13.3125 9.14453V17.0195ZM14.4375 17.0195V9.14453L19.5 7.24609L19.5352 15.2266L14.4375 17.0195ZM11.3438 4.75C11.3438 4.29297 10.957 3.90625 10.5 3.90625C10.0078 3.90625 9.65625 4.29297 9.65625 4.75C9.65625 5.24219 10.0078 5.59375 10.5 5.59375C10.957 5.59375 11.3438 5.24219 11.3438 4.75Z" fill="#F17228"/>
</svg>
