<svg width="21" height="17" viewBox="0 0 21 17" fill="none" xmlns="http://www.w3.org/2000/svg">
<path d="M20.2031 6H17.4961L12.5742 0.585938C12.3633 0.339844 12.0117 0.339844 11.8008 0.550781C11.5547 0.761719 11.5547 1.11328 11.7656 1.32422L15.9844 6H4.98047L9.19922 1.32422C9.41016 1.11328 9.41016 0.761719 9.16406 0.550781C8.95312 0.339844 8.60156 0.339844 8.39062 0.585938L3.46875 6H0.796875C0.550781 6 0.375 6.21094 0.375 6.42188V6.70312C0.375 6.94922 0.550781 7.125 0.796875 7.125H1.35938L2.41406 14.6836C2.51953 15.5273 3.22266 16.125 4.06641 16.125H16.8984C17.7422 16.125 18.4453 15.5273 18.5508 14.6836L19.6055 7.125H20.2031C20.4141 7.125 20.625 6.94922 20.625 6.70312V6.42188C20.625 6.21094 20.4141 6 20.2031 6ZM17.4609 14.543C17.3906 14.8242 17.1797 15 16.8984 15H4.06641C3.78516 15 3.57422 14.8242 3.50391 14.543L2.48438 7.125H18.4805L17.4609 14.543ZM11.0625 9.09375C11.0625 8.8125 10.7812 8.53125 10.5 8.53125C10.1836 8.53125 9.9375 8.8125 9.9375 9.09375V13.0312C9.9375 13.3477 10.1836 13.5938 10.5 13.5938C10.7812 13.5938 11.0625 13.3477 11.0625 13.0312V9.09375ZM15 9.09375C15 8.8125 14.7188 8.53125 14.4375 8.53125C14.1211 8.53125 13.875 8.8125 13.875 9.09375V13.0312C13.875 13.3477 14.1211 13.5938 14.4375 13.5938C14.7188 13.5938 15 13.3477 15 13.0312V9.09375ZM7.125 9.09375C7.125 8.8125 6.84375 8.53125 6.5625 8.53125C6.24609 8.53125 6 8.8125 6 9.09375V13.0312C6 13.3477 6.24609 13.5938 6.5625 13.5938C6.84375 13.5938 7.125 13.3477 7.125 13.0312V9.09375Z" fill="#F17228"/>
</svg>
