<svg width="19" height="18" viewBox="0 0 19 18" fill="none" xmlns="http://www.w3.org/2000/svg">
<path d="M9.5 0.53125C4.68359 0.53125 0.78125 4.43359 0.78125 9.25C0.78125 14.0664 4.68359 17.9688 9.5 17.9688C14.3164 17.9688 18.2188 14.0664 18.2188 9.25C18.2188 4.43359 14.3164 0.53125 9.5 0.53125ZM14 15.3672C12.7344 16.3164 11.1523 16.8438 9.5 16.8438C7.8125 16.8438 6.23047 16.3164 5 15.3672V14.875C5 13.6445 5.98438 12.625 7.25 12.625C7.63672 12.625 8.19922 13.0469 9.5 13.0469C10.7656 13.0469 11.3281 12.625 11.75 12.625C12.9805 12.625 14 13.6445 14 14.875V15.3672ZM15.0547 14.418C14.8086 12.7656 13.4375 11.5 11.75 11.5C11.0117 11.5 10.6602 11.9219 9.5 11.9219C8.30469 11.9219 7.95312 11.5 7.25 11.5C5.52734 11.5 4.15625 12.7656 3.91016 14.418C2.64453 13.0469 1.90625 11.2539 1.90625 9.25C1.90625 5.06641 5.28125 1.65625 9.5 1.65625C13.6836 1.65625 17.0938 5.06641 17.0938 9.25C17.0938 11.2539 16.3203 13.0469 15.0547 14.418ZM9.5 4.46875C7.77734 4.46875 6.40625 5.875 6.40625 7.5625C6.40625 9.28516 7.77734 10.6562 9.5 10.6562C11.1875 10.6562 12.5938 9.28516 12.5938 7.5625C12.5938 5.875 11.1875 4.46875 9.5 4.46875ZM9.5 9.53125C8.41016 9.53125 7.53125 8.65234 7.53125 7.5625C7.53125 6.50781 8.41016 5.59375 9.5 5.59375C10.5547 5.59375 11.4688 6.50781 11.4688 7.5625C11.4688 8.65234 10.5547 9.53125 9.5 9.53125Z" fill="#F17228"/>
</svg>
