<svg width="14" height="15" viewBox="0 0 14 15" fill="none" xmlns="http://www.w3.org/2000/svg">
<path d="M9.43359 9.0625C8.64062 9.0625 8.28516 9.5 7 9.5C5.6875 9.5 5.33203 9.0625 4.53906 9.0625C2.51562 9.0625 0.875 10.7305 0.875 12.7539V13.4375C0.875 14.1758 1.44922 14.75 2.1875 14.75H11.8125C12.5234 14.75 13.125 14.1758 13.125 13.4375V12.7539C13.125 10.7305 11.457 9.0625 9.43359 9.0625ZM11.8125 13.4375H2.1875V12.7539C2.1875 11.4414 3.22656 10.375 4.53906 10.375C4.94922 10.375 5.57812 10.8125 7 10.8125C8.39453 10.8125 9.02344 10.375 9.43359 10.375C10.7461 10.375 11.8125 11.4414 11.8125 12.7539V13.4375ZM7 8.625C9.16016 8.625 10.9375 6.875 10.9375 4.6875C10.9375 2.52734 9.16016 0.75 7 0.75C4.8125 0.75 3.0625 2.52734 3.0625 4.6875C3.0625 6.875 4.8125 8.625 7 8.625ZM7 2.0625C8.42188 2.0625 9.625 3.26562 9.625 4.6875C9.625 6.13672 8.42188 7.3125 7 7.3125C5.55078 7.3125 4.375 6.13672 4.375 4.6875C4.375 3.26562 5.55078 2.0625 7 2.0625Z" fill="#F17228"/>
</svg>
