<svg width="23" height="19" viewBox="0 0 23 19" fill="none" xmlns="http://www.w3.org/2000/svg">
<path d="M22.75 7.9375C22.75 7.42969 22.3203 7 21.8125 7H19.1562L14.9766 1.29688C14.5859 0.710938 13.8047 0.59375 13.2578 1.02344C12.6719 1.41406 12.5547 2.19531 12.9844 2.74219L16.0703 7H6.89062L9.97656 2.74219C10.4062 2.19531 10.2891 1.41406 9.70312 1.02344C9.15625 0.59375 8.375 0.710938 7.98438 1.29688L3.80469 7H1.1875C0.640625 7 0.25 7.42969 0.25 7.9375V8.5625C0.25 9.10938 0.640625 9.5 1.1875 9.5H1.5L2.51562 16.6484C2.63281 17.5859 3.41406 18.25 4.35156 18.25H18.6094C19.5469 18.25 20.3281 17.5859 20.4453 16.6484L21.5 9.5H21.8125C22.3203 9.5 22.75 9.10938 22.75 8.5625V7.9375ZM12.4375 14.8125C12.4375 15.3594 12.0078 15.75 11.5 15.75C10.9531 15.75 10.5625 15.3594 10.5625 14.8125V10.4375C10.5625 9.92969 10.9531 9.5 11.5 9.5C12.0078 9.5 12.4375 9.92969 12.4375 10.4375V14.8125ZM16.8125 14.8125C16.8125 15.3594 16.3828 15.75 15.875 15.75C15.3281 15.75 14.9375 15.3594 14.9375 14.8125V10.4375C14.9375 9.92969 15.3281 9.5 15.875 9.5C16.3828 9.5 16.8125 9.92969 16.8125 10.4375V14.8125ZM8.0625 14.8125C8.0625 15.3594 7.63281 15.75 7.125 15.75C6.57812 15.75 6.1875 15.3594 6.1875 14.8125V10.4375C6.1875 9.92969 6.57812 9.5 7.125 9.5C7.63281 9.5 8.0625 9.92969 8.0625 10.4375V14.8125Z" fill="white"/>
</svg>
